#!OML:ASF F:\VICON\USERDATA\INSTALL\rory3\rory3.ASF
:FULLY-SPECIFIED
:DEGREES
564
root -1.61584 16.7414 27.1972 215.559 145.513 -170.526
lowerback -22.7472 -0.672753 2.34535
upperback -11.8027 -0.998972 1.17849
thorax -0.250028 -0.423578 -0.287661
lowerneck -7.70818 -3.37715 -0.610213
upperneck 38.5212 -1.99607 -6.37971
head 14.4787 -1.5308 -2.7503
rclavicle 1.18277e-014 2.38542e-014
rhumerus -59.8582 9.09747 -73.9047
rradius 20.2191
rwrist -28.1155
rhand 28.0874 5.31801
rfingers 7.12502
rthumb 51.9795 -14.7998
lclavicle 1.18277e-014 2.38542e-014
lhumerus -233.399 -186.269 240.058
lradius 20.9591
lwrist -4.80855
lhand 25.9912 27.5555
lfingers 7.12502
lthumb 50.0696 48.7416
rfemur 121.309 -184.762 -160.183
rtibia 43.2498
rfoot -48.9801 -40.2302
rtoes 39.2393
lfemur -17.4826 -0.443961 -25.942
ltibia 36.7759
lfoot 5.98265 39.4716
ltoes 17.9804
565
root -1.60956 16.7398 27.192 215.822 145.757 -170.034
lowerback -22.4556 -0.670375 2.12748
upperback -12.0513 -0.929482 0.992368
thorax -0.663242 -0.387804 -0.343125
lowerneck -7.50799 -3.40142 -0.493885
upperneck 38.6072 -2.05077 -6.3985
head 14.4676 -1.53633 -2.78413
rclavicle -3.71727e-014 -1.11319e-014
rhumerus -60.0327 8.32345 -72.8802
rradius 20.0951
rwrist -26.8753
rhand 28.4432 5.24022
rfingers 7.12502
rthumb 52.302 -14.6843
lclavicle -3.71727e-014 -1.11319e-014
lhumerus -233.635 -185.7 240.045
lradius 21.1601
lwrist -4.54377
lhand 26.1817 27.3466
lfingers 7.12502
lthumb 50.2438 48.4404
rfemur 121.189 -184.92 -160.898
rtibia 43.4188
rfoot -49.2464 -40.3822
rtoes 38.9934
lfemur -17.3873 -0.451743 -26.5078
ltibia 36.6222
lfoot 6.26553 39.4873
ltoes 17.5183
566
root -1.59948 16.7389 27.1773 215.857 145.79 -169.88
lowerback -22.3168 -0.635629 2.2614
upperback -12.0628 -0.905866 0.956704
thorax -0.747175 -0.385351 -0.450518
lowerneck -7.39404 -3.45076 -0.315002
upperneck 38.346 -2.13416 -6.54718
head 14.3039 -1.56822 -2.87207
rclavicle 1.66979e-014 -1.43125e-014
rhumerus -59.8135 7.98659 -72.2094
rradius 19.9579
rwrist -26.1535
rhand 28.8188 5.12617
rfingers 7.12502
rthumb 52.6419 -14.5903
lclavicle 1.66979e-014 -1.43125e-014
lhumerus -233.53 -185.627 239.994
lradius 21.3006
lwrist -4.52535
lhand 26.394 27.5953
lfingers 7.12502
lthumb 50.4378 48.585
rfemur 121.15 -185.079 -161.261
rtibia 43.5461
rfoot -49.7027 -40.3505
rtoes 39.1415
lfemur -17.2701 -0.701185 -26.7044
ltibia 36.5093
lfoot 3.69734 39.9762
ltoes 21.3734
567
root -1.59302 16.7399 27.1652 215.684 145.769 -169.975
lowerback -22.2988 -0.676838 2.43234
upperback -11.8968 -1.00696 1.14699
thorax -0.575664 -0.438688 -0.366489
lowerneck -7.40444 -3.40197 -0.396892
upperneck 37.9428 -2.0491 -6.6151
head 14.1209 -1.55748 -2.85497
rclavicle -8.94531e-015 -3.18055e-014
rhumerus -59.2494 7.94476 -71.5907
rradius 19.8111
rwrist -25.5546
rhand 29.0726 5.20689
rfingers 7.12502
rthumb 52.8713 -14.3666
lclavicle -8.94531e-015 -3.18055e-014
lhumerus -233.465 -186.131 239.73
lradius 21.4123
lwrist -4.69872
lhand 26.5887 27.9227
lfingers 7.12502
lthumb 50.6156 48.8161
rfemur 121.214 -185.368 -161.39
rtibia 43.6286
rfoot -50.2166 -40.4615
rtoes 39.2363
lfemur -17.1444 -0.576305 -26.6462
ltibia 36.4349
lfoot 3.02233 40.1312
ltoes 22.8129
568
root -1.58836 16.7372 27.1635 215.487 145.922 -170.021
lowerback -22.28 -0.665373 2.42362
upperback -11.7593 -1.00259 1.25627
thorax -0.430598 -0.43289 -0.245162
lowerneck -7.43853 -3.3429 -0.51046
upperneck 37.6474 -1.95029 -6.63062
head 13.9982 -1.53619 -2.81505
rclavicle 2.33572e-014 6.83819e-014
rhumerus -58.8933 7.84905 -71.1022
rradius 19.6286
rwrist -25.0131
rhand 29.127 5.60204
rfingers 7.12502
rthumb 52.9204 -13.9406
lclavicle 2.33572e-014 6.83819e-014
lhumerus -233.39 -186.318 239.564
lradius 21.4178
lwrist -4.63952
lhand 26.3246 28.2293
lfingers 7.12502
lthumb 50.3744 49.2532
rfemur 121.357 -185.802 -161.629
rtibia 43.6424
rfoot -50.7479 -40.4839
rtoes 39.6286
lfemur -16.9655 -0.258436 -26.6889
ltibia 36.4356
lfoot 3.56359 39.9868
ltoes 22.5217
569
root -1.58742 16.7313 27.1627 215.581 146.258 -169.757
lowerback -22.2522 -0.666177 2.07703
upperback -11.7384 -0.94082 1.27395
thorax -0.410628 -0.385841 -0.0171513
lowerneck -7.49853 -3.3346 -0.70225
upperneck 37.3567 -1.87702 -6.73325
head 13.8846 -1.54755 -2.80129
rclavicle 1.09332e-014 1.11319e-014
rhumerus -58.7426 7.9791 -70.9092
rradius 19.5219
rwrist -24.8656
rhand 29.0457 5.79607
rfingers 7.12502
rthumb 52.847 -13.7927
lclavicle 1.09332e-014 1.11319e-014
lhumerus -233.277 -186.379 239.46
lradius 21.1637
lwrist -4.69525
lhand 25.8936 28.1981
lfingers 7.12502
lthumb 49.9803 49.4312
rfemur 121.322 -186.21 -162.213
rtibia 43.6367
rfoot -50.8722 -40.7182
rtoes 39.875
lfemur -16.9481 0.189662 -27.0687
ltibia 36.4641
lfoot 5.53827 39.6493
ltoes 19.7872
570
root -1.58057 16.7328 27.1538 215.311 146.01 -170.072
lowerback -22.1672 -0.568554 2.56546
upperback -11.652 -0.910762 1.41693
thorax -0.366408 -0.388526 -0.134564
lowerneck -7.50671 -3.42206 -0.888201
upperneck 36.8028 -1.93696 -6.92757
head 13.6324 -1.62857 -2.82853
rclavicle -6.95746e-015 -1.11319e-014
rhumerus -58.3907 7.77418 -70.3881
rradius 19.317
rwrist -24.4359
rhand 28.9987 5.797
rfingers 7.12502
rthumb 52.8045 -13.8184
lclavicle -6.95746e-015 -1.11319e-014
lhumerus -232.956 -187.107 238.759
lradius 20.4799
lwrist -5.80798
lhand 25.7803 27.1957
lfingers 7.12502
lthumb 49.8766 48.483
rfemur 121.469 -186.45 -162.057
rtibia 43.5943
rfoot -51.2461 -40.824
rtoes 40.0719
lfemur -16.9064 0.185527 -26.6981
ltibia 36.5113
lfoot 4.10388 39.9472
ltoes 22.4202
